<?xml version="1.0" encoding="utf-8"?>
<!-- Generator: Adobe Illustrator 25.2.1, SVG Export Plug-In . SVG Version: 6.00 Build 0)  -->
<svg version="1.1" id="Layer_1" xmlns="http://www.w3.org/2000/svg" xmlns:xlink="http://www.w3.org/1999/xlink" x="0px" y="0px"
	 viewBox="0 0 1512 792" style="enable-background:new 0 0 1512 792;" xml:space="preserve">
<style type="text/css">
	.st0{fill:#FFFFFF;}
</style>
<g>
	<g>
		<g>
			<g>
				<g>
					<rect x="154.9" y="203.8" width="1202.1" height="25.7"/>
				</g>
			</g>
			<polygon points="994.3,508.9 994.3,545.5 964.3,545.5 964.3,508.9 948,508.9 948,583 964.3,583 964.3,560.5 994.3,560.5 
				994.3,583 1010.6,583 1010.6,508.9 			"/>
			<g>
				<path d="M640.7,508.9L608.9,583h16.6l6.5-15.9c4.4-3.6,10-5.9,16.1-5.9c5.9,0,11.2,2,15.5,5.4l6.7,16.4h17l-31.8-74.1H640.7z
					 M648.2,548.3c-3.1,0-6,0.4-8.9,1l8.6-21.1l8.6,20.9C653.9,548.6,651.1,548.3,648.2,548.3z"/>
			</g>
			<g>
				<polygon points="773.7,554.5 739,508.9 724,508.9 724,583 740.1,583 740.1,535.9 776,583 789.8,583 789.8,508.9 773.7,508.9 
									"/>
			</g>
			<g>
				<path d="M884.6,566.9c-2.9,1.6-6.5,2.3-10.7,2.3c-3.2,0-6.1-0.6-8.7-1.9c-2.6-1.2-4.9-2.9-6.8-5c-1.9-2.1-3.3-4.6-4.4-7.4
					c-1.1-2.8-1.6-5.8-1.6-9v-0.2c0-3.2,0.5-6.2,1.6-8.9c1.1-2.8,2.5-5.2,4.4-7.4c1.9-2.1,4.2-3.8,6.8-5c2.6-1.2,5.5-1.8,8.6-1.8
					c3.7,0,7.1,0.7,10.1,2.2c3,1.5,5.9,3.5,8.8,6.1l10.4-12c-1.7-1.7-3.5-3.2-5.5-4.7c-2-1.4-4.1-2.6-6.5-3.6
					c-2.3-1-4.9-1.8-7.8-2.3c-2.9-0.6-6-0.8-9.5-0.8c-5.7,0-10.9,1-15.7,3c-4.7,2-8.8,4.8-12.2,8.3c-3.4,3.5-6,7.6-7.9,12.2
					c-1.9,4.6-2.9,9.6-2.9,14.9v0.2c0,5.3,1,10.3,2.9,14.9s4.6,8.7,7.9,12.1c3.4,3.4,7.4,6.1,12.1,8.1c4.7,2,9.7,3,15.1,3
					c3.6,0,6.8-0.3,9.7-0.9c2.9-0.6,5.6-1.5,8-2.6c2.4-1.2,4.7-2.6,6.7-4.2c2-1.6,4-3.5,5.9-5.5l-10.4-10.5
					C890.5,563.2,887.6,565.3,884.6,566.9z"/>
			</g>
		</g>
	</g>
	<path d="M547.9,556.2c4.4-1.8,8-4.4,10.8-8c2.9-3.8,4.4-8.7,4.4-14.7v-0.2c0-7.7-2.5-13.7-7.4-18c-4.9-4.3-11.8-6.5-20.6-6.5h-33.9
		V583h16.3v-23.7c13.6,0.8,25.5,11.3,32.6,23.7h18C563.7,572.1,556.6,562.9,547.9,556.2z M517.5,523.6h16.2c4,0,7.2,0.9,9.4,2.6
		c2.3,1.8,3.4,4.4,3.4,7.9v0.2c0,3.2-1.1,5.7-3.2,7.6c-2.2,1.9-5.2,2.9-9.3,2.9h-16.5V523.6z"/>
	<g>
		<path d="M255.6,452.7c-1.6,0.9-3.5-0.3-3.5-2.1v-53.1c0-10.2-3.7-17.8-11-22.7c5.1-3.2,9.1-7.5,11.9-12.7
			c3.7-6.8,5.5-13.9,5.5-21.1v-28.1c0-5.2-0.9-10.2-2.6-15c-1.8-4.9-4.5-9.2-8-13c-3.5-3.7-8-6.8-13.3-9.1
			c-5.3-2.3-11.4-3.5-18.2-3.5h-40.1v13.1l4-0.7c1.4-0.2,2.7,0.9,2.7,2.3v160.8c0,1.8-1.9,3-3.5,2.3l-3.2-1.4v14.8h37.4v-14.8
			l-2.7,1.3c-1.7,0.8-3.6-0.4-3.6-2.3l-0.1-65.8h7.2c1.4,0.2,2.9,0.4,4.6,0.8c1.5,0.3,2.8,1,4.1,1.9c1.2,0.9,2.2,2.2,3,4
			c0.8,1.9,1.3,4.5,1.3,7.9l0,42.5c0.2,4.8,1,9,2.5,12.4c1.4,3.4,3.3,6.2,5.5,8.4c2.2,2.2,4.7,3.8,7.3,4.9c2.6,1,5.2,1.5,7.9,1.5
			c3.1,0,5.6-0.5,7.6-1.5c1.8-0.9,3.3-1.8,4.5-2.9l1.1-1v-12.4L255.6,452.7z M233.8,346.4c0,4-0.6,7.4-1.9,10.2
			c-1.3,2.8-2.8,5.1-4.5,6.8c-1.7,1.7-3.4,2.9-5.2,3.7c-2.2,1-3.5,1.1-4.3,1.1h-10.7v-83.2h10.7c0.7,0,2,0.2,4.2,1.2
			c1.8,0.9,3.6,2.2,5.3,4c1.7,1.8,3.3,4.2,4.6,7c1.3,2.8,1.9,6.1,1.9,9.9V346.4z"/>
		<path d="M347.3,286v-13.5h-37.6V286l3.6-0.9c1.6-0.4,3.1,0.8,3.1,2.5V448c0,1.7-1.7,2.8-3.3,2.2l-3.5-1.3v14.5h37.6V449l-3.5,1.3
			c-1.6,0.6-3.2-0.6-3.2-2.2V287.4c0-1.7,1.6-2.9,3.2-2.4L347.3,286z"/>
		<path d="M457.9,272.7v13.6l4.4-1c1.6-0.3,3,1,2.7,2.6c-1.2,7.6-3.3,20-4.3,25.5l-4.1,24.5c-1.5,9.2-3.2,18.6-4.9,28.2
			c-1.7,9.6-3.4,19.2-5.2,28.6c-0.5,2.9-1,5.7-1.5,8.4c-0.4-2.7-0.9-5.4-1.3-8.3c-1.5-9.5-3-19-4.5-28.7c-1.6-9.6-3-19.1-4.4-28.2
			c-1.4-9.2-2.6-17.4-3.7-24.6c-0.8-5.1-2.7-17.6-3.9-25.6c-0.2-1.6,1.2-2.9,2.8-2.6l4.6,1v-13.6l-44.6,0v13.6l3.9-0.9
			c1.1-0.2,2.2-0.2,3.2,0c0.8,0.2,1.6,0.6,2.3,1.4c0.5,0.5,1.1,1.4,1.6,3.6c0.1,0.7,0.3,2.4,1.2,7.7c0.8,5,1.8,11.5,3.1,19.5
			c1.3,8,2.8,17.1,4.4,27.4c1.6,10.2,3.3,20.6,5,31.1c0,0,13.9,87.4,13.9,87.4l18.6,0c0,0,0.5-2.6,0.5-2.6
			c5.8-31.3,11-59.8,15.5-84.7c1.9-10.5,3.8-20.9,5.7-31.1c1.9-10.1,3.5-19.3,4.9-27.4c1.4-7.9,2.5-14.5,3.5-19.4
			c1.1-5.7,1.4-7.3,1.4-7.9c0.2-1.6,0.7-2.8,1.3-3.4c0.8-0.8,1.6-1.2,2.4-1.4c1.1-0.2,2.2-0.2,3.3,0l3.9,0.9v-13.6H457.9z"/>
		<path d="M590,284.6c2.5,0,4.3,0.8,5.7,2.4c1.7,2,2.9,4.1,3.6,6.1c0.8,2.9,1.3,6.2,1.4,9.9l0.1,3.1h13v-33.5h-78.4V286l3.9-0.9
			c1.4-0.3,2.8,0.8,2.8,2.2v160.5c0,1.8-1.8,3-3.4,2.4l-3.3-1.2v14.5h78.4V430h-13l-0.1,3.1c-0.2,3.7-0.6,7-1.4,9.8
			c-0.7,2.3-1.9,4.3-3.5,6c-1.4,1.4-3.3,2.1-5.8,2.1h-23.7v-76h14.9c2,0,2.6,0.7,2.8,0.9c0.9,0.9,1.5,2,1.9,3.3l0.1,0.3
			c0.5,1.3,0.8,3,0.8,5v3.2h12.3v-38.2h-12.3v3.2c0,2-0.3,3.8-0.9,5.4c-0.4,1.1-1,2-1.8,2.9c-0.6,0.6-1.6,0.9-2.9,0.9h-14.9v-77.3
			H590z"/>
		<path d="M1304.2,272.5V286l4.3-0.8c1.6-0.3,3.1,1.1,2.8,2.8c-1.5,8.7-3.6,20.5-4.4,25.3c-1.2,7.2-2.6,15.4-4.1,24.7
			c-1.5,9.2-3.2,18.6-4.9,28.2c-1.7,9.6-3.4,19.2-5.2,28.6c-0.5,2.9-1,5.7-1.5,8.4c-0.4-2.7-0.9-5.4-1.3-8.3
			c-1.5-9.5-2.9-19-4.4-28.7c-1.5-9.6-2.9-19.1-4.3-28.3c-1.4-9.2-2.6-17.4-3.7-24.7l-3.8-25.3c-0.3-1.7,1.3-3.2,3-2.9l4.1,0.8
			v-13.6h-88.8v13.6l3.9-0.9c1.1-0.2,2.2-0.2,3.2,0c0.8,0.2,1.6,0.7,2.3,1.4c0.5,0.5,1.1,1.4,1.6,3.6c0.1,0.7,0.3,2.4,1.2,7.7
			c0.8,5,1.8,11.5,3.1,19.5c1.3,8,2.7,17.1,4.3,27.3c1.6,10.3,3.2,20.8,4.9,31.1l13.9,87.4h18.9l0.5-2.7c1.6-9.2,3.3-18.9,5.2-28.9
			c1.5-8.8,3.3-18.5,5.3-29.3c0.9-4.8,1.8-9.6,2.6-14.4c0.8,4.8,1.5,9.6,2.3,14.4c1.7,10.8,3.3,20.5,4.7,29.3
			c1.7,10.1,3.3,19.8,4.6,28.9l0.4,2.7h18.9l0.5-2.6c5.7-31.5,10.8-59.7,15.2-84.7c1.9-10.5,3.8-20.9,5.7-31.1
			c1.9-10.2,3.6-19.4,5-27.4c1.5-8,2.6-14.5,3.5-19.5c0.9-5.3,1.2-7.1,1.3-7.8c0.5-2.1,1.1-3.1,1.6-3.6c0.7-0.7,1.4-1.1,2.2-1.3
			c1.1-0.2,2.3-0.2,3.6,0l3.8,0.8v-13.6H1304.2z M1249.9,386.4c-1.1,5.8-2.1,11.3-3,16.5c-0.4-2.6-0.8-5.2-1.2-7.9
			c-1.5-9.5-3-19-4.5-28.7c-1.5-9.5-3-19-4.4-28.2c-1.4-9.2-2.6-17.4-3.7-24.7c-0.9-5.5-2.5-16.8-3.4-23.6c-0.3-2.4,1.5-4.6,4-4.6
			l9.2,0c2,0,3.6,1.4,3.9,3.4c0.4,2.3,0.8,4.9,1.1,6.6c0.5,3.2,1.2,7.5,2.1,12.9c0.9,5.4,1.8,11.7,3,18.8c1.1,7,2.3,14.5,3.7,22.4
			C1254.4,361.4,1252.2,373.8,1249.9,386.4z"/>
		<path d="M741.8,452.7c-1.6,0.9-3.5-0.3-3.5-2.1v-53.1c0-10.2-3.7-17.8-11-22.7c5.1-3.2,9.1-7.5,11.9-12.7
			c3.7-6.8,5.5-13.9,5.5-21.1v-28.1c0-5.2-0.9-10.2-2.6-15c-1.8-4.9-4.5-9.2-8-13c-3.5-3.7-8-6.8-13.3-9.1
			c-5.3-2.3-11.4-3.5-18.2-3.5h-40.1v13.1l4-0.7c1.4-0.2,2.7,0.9,2.7,2.3v160.8c0,1.8-1.9,3-3.5,2.3l-3.2-1.4v14.8h37.4v-14.8
			l-2.7,1.3c-1.7,0.8-3.6-0.4-3.6-2.3l-0.1-65.8h7.2c1.4,0.2,2.9,0.4,4.6,0.8c1.5,0.3,2.8,1,4.1,1.9c1.2,0.9,2.2,2.2,3,4
			c0.8,1.9,1.3,4.5,1.3,7.9l0,42.5c0.2,4.8,1,9,2.5,12.4c1.4,3.4,3.3,6.2,5.5,8.4c2.2,2.2,4.7,3.8,7.3,4.9c2.6,1,5.2,1.5,7.9,1.5
			c3.1,0,5.6-0.5,7.6-1.5c1.8-0.9,3.3-1.8,4.5-2.9l1.1-1v-12.4L741.8,452.7z M720,346.4c0,4-0.6,7.4-1.9,10.2
			c-1.3,2.8-2.8,5.1-4.5,6.8c-1.7,1.7-3.4,2.9-5.2,3.7c-2.2,1-3.5,1.1-4.3,1.1h-10.7v-83.2h10.7c0.7,0,2,0.2,4.2,1.2
			c1.8,0.9,3.6,2.2,5.3,4c1.7,1.8,3.3,4.2,4.6,7c1.3,2.8,1.9,6.1,1.9,9.9V346.4z"/>
		<path d="M907.3,272.7v13.6l4.4-1c1.6-0.3,3,1,2.7,2.6c-1.2,7.6-3.3,20-4.3,25.5l-4.1,24.5c-1.5,9.2-3.2,18.6-4.9,28.2
			c-1.7,9.6-3.4,19.2-5.2,28.6c-0.5,2.9-1,5.7-1.5,8.4c-0.4-2.7-0.9-5.4-1.3-8.3c-1.5-9.5-3-19-4.5-28.7c-1.6-9.6-3-19.1-4.4-28.2
			c-1.4-9.2-2.6-17.4-3.7-24.6c-0.8-5.1-2.7-17.6-3.9-25.6c-0.2-1.6,1.2-2.9,2.8-2.6l4.6,1v-13.6l-44.6,0v13.6l3.9-0.9
			c1.1-0.2,2.2-0.2,3.2,0c0.8,0.2,1.6,0.6,2.3,1.4c0.5,0.5,1.1,1.4,1.6,3.6c0.1,0.7,0.3,2.4,1.2,7.7c0.8,5,1.8,11.5,3.1,19.5
			c1.3,8,2.8,17.1,4.4,27.4c1.6,10.2,3.3,20.6,5,31.1c0,0,13.9,87.4,13.9,87.4l18.6,0c0,0,0.5-2.6,0.5-2.6
			c5.8-31.3,11-59.8,15.5-84.7c1.9-10.5,3.8-20.9,5.7-31.1c1.9-10.1,3.5-19.3,4.9-27.4c1.4-7.9,2.5-14.5,3.5-19.4
			c1.1-5.7,1.4-7.3,1.4-7.9c0.2-1.6,0.7-2.8,1.3-3.4c0.8-0.8,1.6-1.2,2.4-1.4c1.1-0.2,2.2-0.2,3.3,0l3.9,0.9v-13.6H907.3z"/>
		<path d="M1020.4,286v-13.5h-37.6V286l3.6-0.9c1.6-0.4,3.1,0.8,3.1,2.5V448c0,1.7-1.7,2.8-3.3,2.2l-3.5-1.3v14.5h37.6V449l-3.5,1.3
			c-1.6,0.6-3.2-0.6-3.2-2.2V287.4c0-1.7,1.6-2.9,3.2-2.4L1020.4,286z"/>
		<path d="M1121.8,284.6c2.5,0,4.3,0.8,5.7,2.4c1.7,2,2.9,4.1,3.6,6.1c0.8,2.9,1.3,6.2,1.4,9.9l0.1,3.1h13v-33.5h-78.4V286l3.9-0.9
			c1.4-0.3,2.8,0.8,2.8,2.2v160.5c0,1.8-1.8,3-3.4,2.4l-3.3-1.2v14.5h78.4V430h-13l-0.1,3.1c-0.2,3.7-0.6,7-1.4,9.8
			c-0.7,2.3-1.9,4.3-3.5,6c-1.4,1.4-3.3,2.1-5.8,2.1h-23.7v-76h14.9c2,0,2.6,0.7,2.8,0.9c0.9,0.9,1.5,2,1.9,3.3l0.1,0.3
			c0.5,1.3,0.8,3,0.8,5v3.2h12.3v-38.2h-12.3v3.2c0,2-0.3,3.8-0.9,5.4c-0.4,1.1-1,2-1.8,2.9c-0.6,0.6-1.6,0.9-2.9,0.9h-14.9v-77.3
			H1121.8z"/>
	</g>
	<path d="M440.7,508.9H154.9v25.7h60.4c-0.5,12.8,2.9,24.5,10,33.7c10.2,13.3,26.8,19.9,45.9,19.9c17,0,36-8.2,54.5-19.5
		c4-2.4,7.8-5,11.6-7.7c8.8-6.3,23.9-21.8,48.2-21.8c4,0,7.9,1.3,10.8,4c2.7,2.6,4.2,6,4.2,9.7c0,7.4-6,13.6-13.4,13.8
		c-2.3-0.1-4.4-1.1-6.1-2.8l11.3-11.5c-0.3-0.8-0.7-1.6-1.3-2.4c-1.2-1.6-3.5-3.4-7.6-3.4c-4.7,0-9.3,2-12.6,5.4
		c-3.3,3.4-5,7.9-4.8,12.6h0c0.4,11.1,9.8,19.9,21,19.9c0.2,0,0.4,0,0.7,0c8.3-0.2,16-3.7,21.7-9.6c5.8-6,8.9-13.8,8.9-22.1
		c0-6.6-2.1-12.9-5.9-18.1h28.5V508.9z M328.2,545.9c-4.8,3.6-9.8,6.9-15,9.9c-14.6,8.5-29.4,14.6-42.3,14.6
		c-13.5,0-24.9-4.3-31.7-13c-4.6-6-6.8-13.9-6.3-22.9h113.3C338.9,538.6,332.5,542.8,328.2,545.9z"/>
	<path d="M1071.3,534.6h28.5c-3.8,5.3-5.9,11.5-5.9,18.1c0,8.3,3.1,16.1,8.9,22.1c5.7,5.9,13.5,9.3,21.7,9.6c0.2,0,0.4,0,0.7,0
		c11.2,0,20.6-8.8,21-19.9h0c0.2-4.7-1.5-9.1-4.8-12.6c-3.3-3.4-7.9-5.4-12.6-5.4c-4.1,0-6.4,1.9-7.6,3.4c-0.6,0.8-1,1.6-1.3,2.4
		l11.3,11.5c-1.7,1.7-3.8,2.7-6.1,2.8c-7.4-0.2-13.4-6.4-13.4-13.8c0-3.7,1.5-7.1,4.2-9.7c2.9-2.7,6.8-4,10.8-4
		c24.4,0,39.4,15.5,48.2,21.8c3.8,2.7,7.6,5.3,11.6,7.7c18.4,11.3,37.5,19.5,54.5,19.5c19.1,0,35.6-6.6,45.9-19.9
		c7.1-9.3,10.5-20.9,10-33.7h60.4v-25.7h-285.8V534.6z M1165.7,534.6H1279c0.5,9-1.6,16.8-6.3,22.9c-6.7,8.7-18.1,13-31.7,13
		c-12.9,0-27.7-6-42.3-14.6c-5.2-3-10.2-6.4-15-9.9C1179.5,542.8,1173.1,538.6,1165.7,534.6z"/>
</g>
</svg>
